<?xml version="1.0" encoding="UTF-8"?>
<svg version="1.1" xmlns="http://www.w3.org/2000/svg" width="217" height="46">
<path d="M0 0 C0.33 0 0.66 0 1 0 C1 4.29 1 8.58 1 13 C2.093125 12.938125 3.18625 12.87625 4.3125 12.8125 C8 13 8 13 9.875 14.375 C12.36853392 17.97677122 12.36369283 20.63568602 12 25 C9.37439274 29.84727494 5.6474971 33.8904866 2 38 C-3.8832594 37.21078227 -6.99883362 34.18264477 -11 30 C-13.44688668 26.51504019 -14.23953523 24.05527617 -14 19.875 C-13.44923271 16.78951871 -12.94800243 15.93908856 -10.8125 13.4375 C-7.36652125 11.67622197 -5.66626013 11.97685764 -2 13 C-1.93941406 12.14535156 -1.87882812 11.29070313 -1.81640625 10.41015625 C-1.73261719 9.30542969 -1.64882813 8.20070313 -1.5625 7.0625 C-1.48128906 5.96035156 -1.40007813 4.85820312 -1.31640625 3.72265625 C-1 1 -1 1 0 0 Z " fill="#91281F" transform="translate(18,4)"/>
<path d="M0 0 C1.32 0 2.64 0 4 0 C4.67305018 1.60149886 5.33822227 3.20631029 6 4.8125 C6.37125 5.70582031 6.7425 6.59914063 7.125 7.51953125 C8 10 8 10 8 13 C8.66 13 9.32 13 10 13 C10.20496094 12.31292969 10.40992188 11.62585937 10.62109375 10.91796875 C10.89050781 10.01691406 11.15992188 9.11585937 11.4375 8.1875 C11.70433594 7.29417969 11.97117187 6.40085937 12.24609375 5.48046875 C12.80387873 3.64526945 13.39344575 1.81966274 14 0 C15.65 0 17.3 0 19 0 C19 6.27 19 12.54 19 19 C17.68 19 16.36 19 15 19 C14.67 16.36 14.34 13.72 14 11 C13.01 13.64 12.02 16.28 11 19 C9.68 19 8.36 19 7 19 C6.01 16.36 5.02 13.72 4 11 C3.67 13.64 3.34 16.28 3 19 C2.01 19 1.02 19 0 19 C0 12.73 0 6.46 0 0 Z " fill="#030303" transform="translate(37,16)"/>
<path d="M0 0 C0.33 0 0.66 0 1 0 C1 4.29 1 8.58 1 13 C2.093125 12.938125 3.18625 12.87625 4.3125 12.8125 C8 13 8 13 9.875 14.375 C12.36853392 17.97677122 12.36369283 20.63568602 12 25 C9.97333762 28.70390021 8.51955484 30.65363011 5 33 C4.1558062 29.02022924 3.55312735 25.02992782 3 21 C2.01 21.33 1.02 21.66 0 22 C0 21.01 0 20.02 0 19 C-1.98 18.67 -3.96 18.34 -6 18 C-6.12375 17.360625 -6.2475 16.72125 -6.375 16.0625 C-6.58125 15.381875 -6.7875 14.70125 -7 14 C-7.66 13.67 -8.32 13.34 -9 13 C-5.98968256 12.06576355 -5.13349732 11.95550089 -2 13 C-1.93941406 12.14535156 -1.87882812 11.29070313 -1.81640625 10.41015625 C-1.73261719 9.30542969 -1.64882813 8.20070313 -1.5625 7.0625 C-1.48128906 5.96035156 -1.40007813 4.85820312 -1.31640625 3.72265625 C-1 1 -1 1 0 0 Z " fill="#B4362D" transform="translate(18,4)"/>
<path d="M0 0 C1.32 0 2.64 0 4 0 C4 2.64 4 5.28 4 8 C6.97 8 9.94 8 13 8 C13 5.36 13 2.72 13 0 C13.99 0 14.98 0 16 0 C16 6.27 16 12.54 16 19 C15.01 19 14.02 19 13 19 C13 16.36 13 13.72 13 11 C10.03 11 7.06 11 4 11 C4 13.64 4 16.28 4 19 C2.68 19 1.36 19 0 19 C0 12.73 0 6.46 0 0 Z " fill="#040303" transform="translate(161,16)"/>
<path d="M0 0 C0.99 0 1.98 0 3 0 C3 6.6 3 13.2 3 20 C-6 21 -6 21 -8.5625 19.5625 C-10.57545526 15.97418845 -10.66774677 13.02296817 -10 9 C-8.875 6.5 -8.875 6.5 -7 5 C-3.8125 4.75 -3.8125 4.75 -1 5 C-0.67 3.35 -0.34 1.7 0 0 Z M-6 8 C-7.19988045 13.28199593 -7.19988045 13.28199593 -5 18 C-3.68 17.67 -2.36 17.34 -1 17 C-0.06619039 12.46859347 -0.06619039 12.46859347 -1 8 C-2.65 8 -4.3 8 -6 8 Z " fill="#030303" transform="translate(83,15)"/>
<path d="M0 0 C3.14041545 0.05562733 4.42145416 0.19335122 7.1875 1.8125 C7.661875 2.3075 8.13625 2.8025 8.625 3.3125 C8.295 4.3025 7.965 5.2925 7.625 6.3125 C7.13 5.9825 6.635 5.6525 6.125 5.3125 C2.53409106 3.87613642 -0.51956127 4.18398538 -4.375 4.3125 C-4.45631463 5.74905854 -4.51433559 7.1869483 -4.5625 8.625 C-4.59730469 9.42550781 -4.63210937 10.22601563 -4.66796875 11.05078125 C-4.55117437 13.37462782 -4.55117437 13.37462782 -3.05859375 15.1171875 C-1.29306292 16.63516812 -1.29306292 16.63516812 1.75 16.125 C3.173125 15.7228125 3.173125 15.7228125 4.625 15.3125 C4.955 14.6525 5.285 13.9925 5.625 13.3125 C6.615 13.6425 7.605 13.9725 8.625 14.3125 C7.69288763 16.64278092 6.93496602 18.07141532 4.9375 19.625 C1.51176201 20.64346265 -0.93316074 20.17295982 -4.375 19.3125 C-6.9299383 17.63161954 -8.05061527 16.38185105 -8.94140625 13.4453125 C-9.5905575 9.82373182 -9.61596114 7.84031964 -8.0625 4.4375 C-5.3701809 1.04717225 -4.3206701 0.02153158 0 0 Z " fill="#030303" transform="translate(103.375,15.6875)"/>
<path d="M0 0 C0.99 0 1.98 0 3 0 C3.33 1.65 3.66 3.3 4 5 C4.94875 4.95875 5.8975 4.9175 6.875 4.875 C10 5 10 5 12 7 C12.78909057 11.01121041 13.20409305 13.93418076 12.4375 17.9375 C11 20 11 20 8.1875 20.875 C5 21 5 21 0 20 C0 13.4 0 6.8 0 0 Z M4 8 C2.63047327 10.73905345 2.87378639 12.97087332 3 16 C3.33 16.66 3.66 17.32 4 18 C5.65 17.67 7.3 17.34 9 17 C9 14.36 9 11.72 9 9 C7.35 8.67 5.7 8.34 4 8 Z " fill="#030303" transform="translate(196,15)"/>
<path d="M0 0 C3.5625 0.1875 3.5625 0.1875 5.5625 2.1875 C5.7578125 4.7890625 5.7578125 4.7890625 5.6875 7.8125 C5.66945313 8.81539062 5.65140625 9.81828125 5.6328125 10.8515625 C5.59800781 12.00785156 5.59800781 12.00785156 5.5625 13.1875 C6.2225 13.1875 6.8825 13.1875 7.5625 13.1875 C7.5625 14.1775 7.5625 15.1675 7.5625 16.1875 C6.675625 16.001875 5.78875 15.81625 4.875 15.625 C1.65388408 15.01349591 1.65388408 15.01349591 -1.125 15.75 C-3.4375 16.1875 -3.4375 16.1875 -6.4375 14.1875 C-6.75 11.1875 -6.75 11.1875 -6.4375 8.1875 C-4.4375 6.1875 -4.4375 6.1875 -0.8125 6.0625 C0.858125 6.124375 0.858125 6.124375 2.5625 6.1875 C2.2325 5.5275 1.9025 4.8675 1.5625 4.1875 C-0.46213255 3.53536708 -0.46213255 3.53536708 -2.4375 3.1875 C-2.4375 3.8475 -2.4375 4.5075 -2.4375 5.1875 C-3.7575 5.1875 -5.0775 5.1875 -6.4375 5.1875 C-4.03388554 0.22003012 -4.03388554 0.22003012 0 0 Z M-3.4375 10.1875 C-3.1075 11.1775 -2.7775 12.1675 -2.4375 13.1875 C-1.1175 12.8575 0.2025 12.5275 1.5625 12.1875 C1.8925 10.8675 2.2225 9.5475 2.5625 8.1875 C-0.62240007 7.9101499 -0.62240007 7.9101499 -3.4375 10.1875 Z " fill="#050505" transform="translate(120.4375,19.8125)"/>
<path d="M0 0 C1.8125 1.125 1.8125 1.125 3 3 C3.6875 6.1875 3.6875 6.1875 4 9 C0.7 9.33 -2.6 9.66 -6 10 C-5.67 10.66 -5.34 11.32 -5 12 C-2.36 11.67 0.28 11.34 3 11 C2.375 12.9375 2.375 12.9375 1 15 C-1.8125 16 -1.8125 16 -5 16 C-7.875 14.5625 -7.875 14.5625 -10 12 C-10.65874393 9.19890623 -10.61537233 6.8065579 -10 4 C-7.30226606 -0.15035991 -4.80944863 -0.71630086 0 0 Z M-5 3 C-5.33 3.99 -5.66 4.98 -6 6 C-4.02 6 -2.04 6 0 6 C-0.33 5.01 -0.66 4.02 -1 3 C-2.32 3 -3.64 3 -5 3 Z " fill="#030303" transform="translate(68,20)"/>
<path d="M0 0 C1.875 1.125 1.875 1.125 3 3 C3.1875 6.1875 3.1875 6.1875 3 9 C-0.3 9 -3.6 9 -7 9 C-6.01 10.485 -6.01 10.485 -5 12 C-2.36 11.67 0.28 11.34 3 11 C2.375 12.9375 2.375 12.9375 1 15 C-2.18541559 15.96947431 -4.14802252 16.29934344 -7.3125 15.1875 C-9 14 -9 14 -10 12 C-10.57395143 4.88300221 -10.57395143 4.88300221 -8.375 1.5 C-5.31593299 -0.43204232 -3.5572204 -0.52979878 0 0 Z M-6 3 C-6.33 3.99 -6.66 4.98 -7 6 C-4.69 6 -2.38 6 0 6 C-0.33 5.01 -0.66 4.02 -1 3 C-2.65 3 -4.3 3 -6 3 Z " fill="#050405" transform="translate(148,20)"/>
<path d="M0 0 C0.99 0 1.98 0 3 0 C3.33 3.96 3.66 7.92 4 12 C4.99 12 5.98 12 7 12 C7.33 8.37 7.66 4.74 8 1 C9.32 0.67 10.64 0.34 12 0 C12 4.95 12 9.9 12 15 C10.576875 15.20625 9.15375 15.4125 7.6875 15.625 C6.88699219 15.74101563 6.08648437 15.85703125 5.26171875 15.9765625 C3 16 3 16 0 14 C-0.99293628 11.02119115 -1.13406411 8.98398802 -1.125 5.875 C-1.12757813 4.98554688 -1.13015625 4.09609375 -1.1328125 3.1796875 C-1 1 -1 1 0 0 Z " fill="#020202" transform="translate(181,20)"/>
<path d="M0 0 C0.33 0 0.66 0 1 0 C1 4.29 1 8.58 1 13 C2.093125 12.938125 3.18625 12.87625 4.3125 12.8125 C8 13 8 13 9.875 14.375 C12.3488919 17.94839941 12.30311228 20.68064998 12 25 C10.5 26.9375 10.5 26.9375 9 28 C9.33 26.35 9.66 24.7 10 23 C9.34 23 8.68 23 8 23 C8.185625 22.21625 8.37125 21.4325 8.5625 20.625 C9.25962266 18.02910225 9.25962266 18.02910225 8 16 C4.97065509 15.34227572 4.97065509 15.34227572 2 15 C2 15.66 2 16.32 2 17 C3.32 16.67 4.64 16.34 6 16 C5.67 16.66 5.34 17.32 5 18 C-1.52307692 18.36923077 -1.52307692 18.36923077 -3.9375 16.5 C-4.288125 16.005 -4.63875 15.51 -5 15 C-3.68 14.67 -2.36 14.34 -1 14 C-1.01160156 13.07316406 -1.02320313 12.14632813 -1.03515625 11.19140625 C-1.04417969 9.99386719 -1.05320312 8.79632813 -1.0625 7.5625 C-1.07410156 6.36753906 -1.08570313 5.17257812 -1.09765625 3.94140625 C-1 1 -1 1 0 0 Z " fill="#7B4B46" transform="translate(18,4)"/>
<path d="M0 0 C2.64 0 5.28 0 8 0 C8 0.99 8 1.98 8 3 C7.01 3.33 6.02 3.66 5 4 C4.67 7.63 4.34 11.26 4 15 C2.68 15 1.36 15 0 15 C0 10.05 0 5.1 0 0 Z " fill="#030303" transform="translate(129,20)"/>
<path d="M0 0 C0.99 0 1.98 0 3 0 C3 4.95 3 9.9 3 15 C2.01 15 1.02 15 0 15 C0 10.05 0 5.1 0 0 Z " fill="#070707" transform="translate(89,20)"/>
<path d="M0 0 C2.97 0.495 2.97 0.495 6 1 C6 1.99 6 2.98 6 4 C7.32 3.34 8.64 2.68 10 2 C11 9.625 11 9.625 11 13 C10.34 12.67 9.68 12.34 9 12 C9 11.34 9 10.68 9 10 C8.34 10 7.68 10 7 10 C7 8.68 7 7.36 7 6 C6.01 5.67 5.02 5.34 4 5 C2.61423077 3.37667033 1.27358732 1.71275535 0 0 Z " fill="#A52E23" transform="translate(12,22)"/>
<path d="M0 0 C2.00720923 0.28674418 4.0085944 0.61866701 6 1 C5.01 2.485 5.01 2.485 4 4 C8.455 4.99 8.455 4.99 13 6 C11.625 8 11.625 8 10 10 C9.34 10 8.68 10 8 10 C8 9.01 8 8.02 8 7 C5.03 6.505 5.03 6.505 2 6 C1.87625 5.360625 1.7525 4.72125 1.625 4.0625 C1.315625 3.0415625 1.315625 3.0415625 1 2 C0.34 1.67 -0.32 1.34 -1 1 C-0.67 0.67 -0.34 0.34 0 0 Z " fill="#A93B2E" transform="translate(10,16)"/>
<path d="M0 0 C0.99 0.33 1.98 0.66 3 1 C2.125 5.75 2.125 5.75 1 8 C0.01 8 -0.98 8 -2 8 C-2.66 8.99 -3.32 9.98 -4 11 C-3.38461538 3.49230769 -3.38461538 3.49230769 -1.4375 1 C-0.963125 0.67 -0.48875 0.34 0 0 Z " fill="#761D18" transform="translate(8,17)"/>
<path d="M0 0 C2.0625 0.4375 2.0625 0.4375 4 1 C4 3.64 4 6.28 4 9 C1.525 8.01 1.525 8.01 -1 7 C-1.04254356 5.00045254 -1.04080783 2.99958364 -1 1 C-0.67 0.67 -0.34 0.34 0 0 Z " fill="#883C3A" transform="translate(6,24)"/>
<path d="M0 0 C0.99 0 1.98 0 3 0 C5.3297964 3.64030688 5.3862557 6.75118727 5 11 C3.5 12.9375 3.5 12.9375 2 14 C2.33 12.35 2.66 10.7 3 9 C2.34 9 1.68 9 1 9 C1.20625 8.2575 1.4125 7.515 1.625 6.75 C2.04408751 3.67669159 1.61949011 2.57213134 0 0 Z " fill="#DB8277" transform="translate(25,18)"/>
<path d="M0 0 C1.98 0.99 1.98 0.99 4 2 C4 2.66 4 3.32 4 4 C4.928125 4.2475 5.85625 4.495 6.8125 4.75 C10.16458325 6.06454245 11.1877803 6.97963384 13 10 C8.8911959 9.47470631 6.74480159 8.33192009 3.6875 5.5625 C2.99011719 4.94503906 2.29273438 4.32757813 1.57421875 3.69140625 C0 2 0 2 0 0 Z " fill="#6A2B2C" transform="translate(7,32)"/>
<path d="M0 0 C0.99 0 1.98 0 3 0 C3 2.31 3 4.62 3 7 C1.02 7.99 1.02 7.99 -1 9 C-1.33 8.01 -1.66 7.02 -2 6 C-1.34 6 -0.68 6 0 6 C0 4.02 0 2.04 0 0 Z " fill="#0A0A0A" transform="translate(83,15)"/>
<path d="M0 0 C0.33 0.66 0.66 1.32 1 2 C1.66 2 2.32 2 3 2 C3.3125 4.75 3.3125 4.75 3 8 C0.5 10.375 0.5 10.375 -2 12 C-1.649375 11.0925 -1.29875 10.185 -0.9375 9.25 C-0.00575056 6.01993526 -0.01985373 5.04934395 -1 2 C-0.67 1.34 -0.34 0.68 0 0 Z " fill="#BD453E" transform="translate(25,25)"/>
<path d="M0 0 C3 1 3 1 4.1875 3.0625 C4.455625 3.701875 4.72375 4.34125 5 5 C4.01 5.33 3.02 5.66 2 6 C1.67 5.34 1.34 4.68 1 4 C0.01 3.34 -0.98 2.68 -2 2 C-1.34 1.34 -0.68 0.68 0 0 Z " fill="#86201B" transform="translate(15,34)"/>
<path d="M0 0 C1.32 0 2.64 0 4 0 C4 0.66 4 1.32 4 2 C5.32 1.67 6.64 1.34 8 1 C7.67 1.66 7.34 2.32 7 3 C4.69 3 2.38 3 0 3 C0 2.01 0 1.02 0 0 Z " fill="#E58169" transform="translate(16,19)"/>
<path d="M0 0 C0.99 0 1.98 0 3 0 C3 0.99 3 1.98 3 3 C2.01 3 1.02 3 0 3 C0 2.01 0 1.02 0 0 Z " fill="#0C0C0C" transform="translate(89,15)"/>
</svg>
